# xmcd CD database file
#
# Track frame offsets:
#	150
#	12983
#	25633
#	37691
#	50412
#	62499
#	74466
#	87071
#	100214
#	111811
#	125264
#	137764
#	150309
#	162840
#	174891
#	186805
#	201724
#	214503
#	225627
#	239446
#
# Disc length: 3363 seconds
#
# Revision: 0
# Processed by: cddbd v1.5.2PL0 Copyright (c) Steve Scherf et al.
# Submitted via: CDex 1.51
#
DISCID=fc0d2114
DTITLE=Various Artsists - Texas Blues Houston Hotshots
DYEAR=2003
DGENRE=Blues
TTITLE0=Clarence Gatemouth Brown-Didn't Reach My Goal
TTITLE1=Clarence Gatemouth Brown-My Time Is Expensive
TTITLE2=Larvarda Durst-Hattie Green
TTITLE3=Larvarda Durst-I Cried
TTITLE4=Silver Cooks and The Gondoliers-Mr Ticket Agent
TTITLE5=Silver Cooks and The Gondoliers-Coming Back Home
TTITLE6=RB Thibadeaux-RB Boogie
TTITLE7=RB Thibadeaux-New Kind Of Loving
TTITLE8=Edgar Blanchard And The Gondoliers-Creole Gal Blues
TTITLE9=Edgar Blanchard And The Gondoliers-She'll be Mine After A While
TTITLE10=Memphis Slim And His Orchestra-The Girl I Love
TTITLE11=Memphis Slim And His Orchestra-Mean Little Woman
TTITLE12=Elmore Nixon with Henry Hayes and his Four Kings-Alabama Blues
TTITLE13=Elmore Nixon and his Orchestra-A Hepcats Advice
TTITLE14=Paul Monday with Bill Harvey's Band-Irene's Boogie
TTITLE15=Paul Monday with Bill Harvey's Band-Tired Of Life I'm Living
TTITLE16=Joe Papoose Fritz and his orchestra-Summer's Comming On
TTITLE17=Joe Papoose Fritz and his orchestra-I'm Not Suspicious, But
TTITLE18=Bettye Jean Washington with George Sandford's Orchestra-Bettye Jean Blues
TTITLE19=Bettye Jean Washington with George Sandford's Orchestra-Why Oh Why Did You Let me Go
EXTD=YEAR: 2003
EXTT0=
EXTT1=
EXTT2=
EXTT3=
EXTT4=
EXTT5=
EXTT6=
EXTT7=
EXTT8=
EXTT9=
EXTT10=
EXTT11=
EXTT12=
EXTT13=
EXTT14=
EXTT15=
EXTT16=
EXTT17=
EXTT18=
EXTT19=
PLAYORDER=
